#!OML:ASF I:\golf\golf\golf 2\Subject 1\2002-09-07\Subject1.ASF
:FULLY-SPECIFIED
:DEGREES
204
root -6.08354 18.0368 3.29433 5.52169 34.8366 -7.79323
lowerback 1.31851 -10.6085 -16.2962
upperback -1.51965 -14.3208 -3.82422
thorax 0.532354 -6.96706 4.4468
lowerneck -6.54713 22.4473 -0.164428
upperneck 10.5598 32.3294 -13.5656
head 6.54647 14.7496 -1.24919
rclavicle -6.30147e-014 3.18055e-015
rhumerus 29.4794 -24.0338 -63.0475
rradius 105.47
rwrist -3.76638
rhand -61.5433 26.6574
rfingers 7.12502
rthumb -33.6198 -0.209998
lclavicle -6.30147e-014 3.18055e-015
lhumerus 111.819 -41.5173 44.2496
lradius 34.8549
lwrist -2.65794
lhand -21.6411 -0.416443
lfingers 7.12502
lthumb -175.245 -150.49
rfemur -27.6177 18.1955 24.0882
rtibia 28.2692
rfoot -2.80104 22.3207
rtoes 28.3759
lfemur -0.468621 17.4185 3.72495
ltibia 31.9612
lfoot 13.4863 10.6548
ltoes -35.0624
205
root -6.09377 18.0369 3.25248 5.38926 35.3514 -8.06493
lowerback 1.59596 -10.5462 -16.0991
upperback -1.47168 -14.2891 -3.87195
thorax 0.367814 -6.94469 4.36452
lowerneck -6.11026 22.3001 0.244101
upperneck 10.5244 32.0818 -13.651
head 6.52354 14.6684 -1.38156
rclavicle -1.41535e-013 -4.13472e-014
rhumerus 29.1491 -24.0543 -63.4503
rradius 105.093
rwrist -4.06157
rhand -61.3622 25.8285
rfingers 7.12502
rthumb -33.4477 -1.07616
lclavicle -1.41535e-013 -4.13472e-014
lhumerus 111.567 -42.0346 44.2942
lradius 34.3873
lwrist -3.24378
lhand -21.4861 -0.445657
lfingers 7.12502
lthumb -175.095 -150.522
rfemur -27.8424 18.1419 24.1584
rtibia 28.4064
rfoot -3.71973 21.9103
rtoes 24.8602
lfemur -0.80464 17.4789 3.80837
ltibia 31.9546
lfoot 12.8097 10.5289
ltoes -35.0063
206
root -6.09983 18.0352 3.21138 5.28818 35.8481 -8.20067
lowerback 1.82025 -10.3966 -15.9728
upperback -1.41327 -14.1284 -4.03951
thorax 0.205368 -6.85645 4.19589
lowerneck -5.54844 22.0883 0.974312
upperneck 10.6182 31.7603 -13.789
head 6.57249 14.5545 -1.56554
rclavicle -1.01977e-013 -7.31528e-014
rhumerus 28.5144 -24.2851 -63.7575
rradius 104.754
rwrist -4.13807
rhand -61.0856 23.8032
rfingers 7.12502
rthumb -33.1847 -3.15784
lclavicle -1.01977e-013 -7.31528e-014
lhumerus 111.651 -42.6226 43.9008
lradius 33.8565
lwrist -4.01531
lhand -21.8941 -0.357531
lfingers 7.12502
lthumb -175.489 -150.426
rfemur -28.0135 18.0188 24.1271
rtibia 28.553
rfoot -4.16389 21.5147
rtoes 23.3453
lfemur -1.05124 17.5228 3.74714
ltibia 31.9393
lfoot 11.9043 10.5486
ltoes -34.5613
207
root -6.10528 18.0339 3.17239 5.2145 36.3476 -8.24925
lowerback 2.04298 -10.3062 -16.0347
upperback -1.25886 -14.0361 -4.06498
thorax 0.239138 -6.81906 4.23412
lowerneck -5.45439 22.0157 1.24531
upperneck 10.6981 31.679 -13.9239
head 6.64084 14.5143 -1.63304
rclavicle -5.22804e-014 3.49861e-014
rhumerus 28.2965 -24.2591 -64.1717
rradius 104.382
rwrist -4.55132
rhand -61.0094 23.2383
rfingers 7.12502
rthumb -33.1122 -3.73812
lclavicle -5.22804e-014 3.49861e-014
lhumerus 111.323 -42.9785 43.8117
lradius 33.635
lwrist -4.59332
lhand -22.028 0.00387346
lfingers 7.12502
lthumb -175.618 -150.061
rfemur -28.1267 17.7846 24.047
rtibia 28.6377
rfoot -4.49678 21.2446
rtoes 22.1648
lfemur -1.27062 17.6478 3.59715
ltibia 31.9492
lfoot 10.9241 10.6073
ltoes -34.1539
208
root -6.11455 18.0301 3.12999 5.00708 36.8676 -8.51414
lowerback 2.34049 -10.3569 -16.0185
upperback -1.03046 -14.1382 -3.84336
thorax 0.393093 -6.89456 4.46824
lowerneck -5.97955 22.0916 0.816584
upperneck 10.8833 31.8611 -13.8763
head 6.72816 14.5441 -1.49481
rclavicle -6.77856e-014 -7.63333e-014
rhumerus 28.734 -23.7819 -64.8724
rradius 103.97
rwrist -5.53795
rhand -60.8745 24.835
rfingers 7.12502
rthumb -32.9839 -2.16863
lclavicle -6.77856e-014 -7.63333e-014
lhumerus 110.455 -42.9837 44.3489
lradius 33.5355
lwrist -4.59334
lhand -21.3789 0.556839
lfingers 7.12502
lthumb -174.991 -149.522
rfemur -28.2036 17.4722 24.1786
rtibia 28.6246
rfoot -4.8248 21.0372
rtoes 20.6588
lfemur -1.52729 17.9141 3.66801
ltibia 31.9875
lfoot 9.94102 10.8023
ltoes -33.3435
209
root -6.12345 18.0241 3.08251 4.90344 37.418 -8.69281
lowerback 2.52201 -10.2069 -15.9371
upperback -0.945187 -13.9644 -3.94226
thorax 0.30854 -6.8063 4.37541
lowerneck -5.34422 21.8613 1.53701
upperneck 10.9443 31.5124 -14.0437
head 6.75436 14.4243 -1.70276
rclavicle -1.33186e-014 0
rhumerus 28.1329 -23.8338 -65.2409
rradius 103.635
rwrist -6.8663
rhand -60.6602 23.3856
rfingers 7.12502
rthumb -32.7801 -3.66077
lclavicle -1.33186e-014 0
lhumerus 110.193 -43.7128 44.332
lradius 33.5251
lwrist -3.79991
lhand -20.1553 1.40719
lfingers 7.12502
lthumb -173.81 -148.703
rfemur -28.3563 17.1038 24.1966
rtibia 28.5566
rfoot -4.71426 20.8553
rtoes 20.7467
lfemur -1.89857 18.2373 3.59945
ltibia 32.0359
lfoot 9.02795 11.0913
ltoes -33
210
root -6.13026 18.0189 3.03259 4.98241 37.9916 -8.72251
lowerback 2.67179 -10.1854 -15.9706
upperback -0.796861 -13.9488 -3.87646
thorax 0.40696 -6.81267 4.46905
lowerneck -5.55998 21.8015 1.43282
upperneck 11.1251 31.4575 -13.9242
head 6.80755 14.3781 -1.63779
rclavicle -2.87244e-014 6.67916e-014
rhumerus 28.0398 -23.4767 -65.6626
rradius 103.061
rwrist -7.60448
rhand -60.8563 23.1166
rfingers 7.12502
rthumb -32.9666 -3.89069
lclavicle -2.87244e-014 6.67916e-014
lhumerus 109.885 -43.8612 44.4526
lradius 33.3148
lwrist -3.2441
lhand -19.0046 2.13939
lfingers 7.12502
lthumb -172.699 -148.007
rfemur -28.6549 16.8377 24.0031
rtibia 28.5177
rfoot -3.99244 20.4544
rtoes 23.9192
lfemur -2.39067 18.5913 3.29631
ltibia 32.0461
lfoot 8.34794 11.2293
ltoes -33.9208
211
root -6.13976 18.014 2.97917 5.019 38.6147 -8.84354
lowerback 2.87697 -10.2244 -15.9327
upperback -0.645511 -14.024 -3.72295
thorax 0.501498 -6.86642 4.6194
lowerneck -5.96697 21.8189 1.0553
upperneck 11.3029 31.5257 -13.7534
head 6.85141 14.3736 -1.50244
rclavicle 1.71104e-013 6.04305e-014
rhumerus 28.0942 -22.9256 -66.1619
rradius 102.403
rwrist -7.78938
rhand -61.2326 22.6124
rfingers 7.12502
rthumb -33.3244 -4.31881
lclavicle 1.71104e-013 6.04305e-014
lhumerus 109.302 -43.9291 44.8934
lradius 32.9116
lwrist -3.07105
lhand -18.0619 2.56703
lfingers 7.12502
lthumb -171.789 -147.613
rfemur -28.9911 16.5153 23.8955
rtibia 28.5342
rfoot -3.54888 20.0371
rtoes 26.2051
lfemur -2.87844 18.8978 3.05792
ltibia 31.9923
lfoot 7.51723 11.4794
ltoes -34.1062
212
root -6.1514 18.0126 2.92622 4.97301 39.3005 -9.04917
lowerback 3.12336 -10.279 -15.85
upperback -0.472883 -14.1253 -3.52834
thorax 0.601856 -6.93593 4.79312
lowerneck -6.29855 21.8125 0.634714
upperneck 11.3259 31.5494 -13.6808
head 6.83996 14.3571 -1.41155
rclavicle 2.34317e-014 1.90833e-014
rhumerus 28.2583 -22.418 -66.7515
rradius 101.83
rwrist -8.25037
rhand -61.412 22.2912
rfingers 7.12502
rthumb -33.495 -4.60327
lclavicle 2.34317e-014 1.90833e-014
lhumerus 108.509 -44.0116 45.5533
lradius 32.551
lwrist -2.8812
lhand -17.1929 2.66874
lfingers 7.12502
lthumb -170.951 -147.545
rfemur -29.2732 16.0351 23.9088
rtibia 28.5857
rfoot -4.17202 19.8466
rtoes 23.4026
lfemur -3.33667 19.1978 2.90703
ltibia 31.9005
lfoot 6.41803 11.9959
ltoes -33.101
213
root -6.16222 18.0142 2.87379 4.84274 40.0191 -9.4265
lowerback 3.38069 -10.4077 -15.6542
upperback -0.252863 -14.3207 -3.17274
thorax 0.781823 -7.06436 5.06142
lowerneck -7.03149 21.9098 -0.242287
upperneck 11.3508 31.7629 -13.5395
head 6.82842 14.3967 -1.20098
rclavicle 4.72611e-014 7.95139e-014
rhumerus 28.8011 -21.7197 -67.4539
rradius 101.276
rwrist -8.94884
rhand -61.3425 22.0097
rfingers 7.12502
rthumb -33.429 -4.89896
lclavicle 4.72611e-014 7.95139e-014
lhumerus 107.568 -43.7345 46.2733
lradius 32.2236
lwrist -2.98401
lhand -16.4666 2.87969
lfingers 7.12502
lthumb -170.25 -147.366
rfemur -29.5747 15.6605 24.0208
rtibia 28.6541
rfoot -4.99971 19.4705
rtoes 19.2384
lfemur -3.86706 19.4905 2.85932
ltibia 31.8212
lfoot 5.22849 12.6371
ltoes -32.0421
214
root -6.17382 18.0148 2.81554 4.64583 40.7238 -9.89626
lowerback 3.69411 -10.6043 -15.4128
upperback 0.0338199 -14.6109 -2.65324
thorax 1.05558 -7.25392 5.46443
lowerneck -8.45296 22.1041 -1.75229
upperneck 11.5788 32.2315 -13.2026
head 6.88085 14.4926 -0.778501
rclavicle 1.16289e-014 6.04305e-014
rhumerus 29.7528 -20.7435 -68.2252
rradius 100.617
rwrist -9.66276
rhand -61.2972 21.9392
rfingers 7.12502
rthumb -33.3859 -4.97876
lclavicle 1.16289e-014 6.04305e-014
lhumerus 106.708 -42.9808 46.872
lradius 31.7869
lwrist -3.49106
lhand -16.007 3.57595
lfingers 7.12502
lthumb -169.807 -146.691
rfemur -29.924 15.3825 24.1407
rtibia 28.7055
rfoot -5.04089 19.0399
rtoes 18.5049
lfemur -4.41972 19.7849 2.8644
ltibia 31.7756
lfoot 4.09662 13.1741
ltoes -31.3191
215
root -6.18715 18.0142 2.75554 4.46568 41.4383 -10.2682
lowerback 3.97417 -10.5813 -15.2867
upperback 0.258466 -14.6093 -2.40169
thorax 1.17958 -7.27956 5.68509
lowerneck -9.02295 22.0378 -2.08705
upperneck 11.8665 32.2497 -13.0776
head 6.99702 14.4421 -0.638295
rclavicle 6.49032e-014 -3.49861e-014
rhumerus 29.8281 -20.2934 -68.8064
rradius 100.02
rwrist -10.4493
rhand -61.4292 22.2584
rfingers 7.12502
rthumb -33.5114 -4.63253
lclavicle 6.49032e-014 -3.49861e-014
lhumerus 106.174 -43.0541 47.2003
lradius 31.2639
lwrist -3.91939
lhand -15.7248 4.06051
lfingers 7.12502
lthumb -169.534 -146.22
rfemur -30.2179 14.9512 24.2157
rtibia 28.7203
rfoot -4.95794 18.8064
rtoes 18.1299
lfemur -4.9267 20.151 2.80078
ltibia 31.7533
lfoot 3.27429 13.2201
ltoes -31.9621
